<?xml version="1.0" encoding="utf-8"?>
<svg version="1.1"
	 viewBox="0 0 100 166.4" style="enable-background:new 0 0 100 166.4;" xml:space="preserve">
<!-- <style type="text/css">
	*{fill:none;stroke:#000000;stroke-width:4;stroke-linecap:round;stroke-linejoin:round;stroke-miterlimit:10;}
</style> -->
<g>
	<line x1="0" y1="166.4" x2="100" y2="166.4"/>
</g>
<g>
	<line x1="100" y1="166.4" x2="100" y2="66.4"/>
</g>
<g>
	<line x1="0" y1="166.4" x2="100" y2="66.4"/>
</g>
<g>
	<path d="M100,66.4C73.5,39.9,37.5,25,0,25"/>
</g>
<g>
	<line x1="0" y1="166.4" x2="0" y2="25"/>
</g>
<g>
	<line x1="50" y1="116.4" x2="100" y2="116.4"/>
</g>
<g>
	<line x1="100" y1="116.4" x2="100" y2="166.4"/>
</g>
<g>
	<line x1="100" y1="166.4" x2="50" y2="166.4"/>
</g>
<g>
	<line x1="50" y1="166.4" x2="50" y2="116.4"/>
</g>
<g>
	<path d="M0,116.4c0-27.6,22.4-50,50-50s50,22.4,50,50s-22.4,50-50,50S0,144,0,116.4L0,116.4z"/>
</g>
<g>
	<line x1="100" y1="0" x2="0" y2="0"/>
</g>
<g>
	<line x1="0" y1="0" x2="0" y2="25"/>
</g>
<g>
	<line x1="0" y1="25" x2="100" y2="25"/>
</g>
<g>
	<line x1="100" y1="25" x2="100" y2="0"/>
</g>
</svg>
